<?xml version="1.0" encoding="UTF-8"?>
<svg width="135px" height="38px" viewBox="0 0 135 38" version="1.1" xmlns="http://www.w3.org/2000/svg" xmlns:xlink="http://www.w3.org/1999/xlink">
    <!-- Generator: Sketch 55.2 (78181) - https://sketchapp.com -->
    <title>Group 3</title>
    <desc>Created with Sketch.</desc>
    <g id="Programs-Landing-Page" stroke="none" stroke-width="1" fill="none" fill-rule="evenodd">
        <g id="Program-Landing-Page" transform="translate(-195.000000, -7092.000000)" fill="#FFFFFF">
            <g id="Global/Footer" transform="translate(0.000000, 7014.000000)">
                <g id="Group-3" transform="translate(195.000000, 78.000000)">
                    <path d="M103.247184,27.2448302 C102.958658,26.8614146 102.402374,26.4894401 101.83972,26.2413641 C101.276513,25.9935671 100.655988,25.8702268 99.9770381,25.8702268 C98.4347253,25.8702268 97.5932372,26.43363 96.5778581,27.7621901 L96.5853343,25.9491981 L93.2791915,25.9491981 L93.2791915,37.8964722 L96.5529375,37.8964722 L96.5529375,32.5696745 C96.5529375,31.2561832 96.5313395,30.2820174 96.6880629,29.794795 C96.84534,29.3081307 97.0430441,28.9897339 97.4672493,28.6942192 C97.8906239,28.3992627 98.3693777,28.251924 98.9026802,28.251924 C99.3194092,28.251924 99.6752211,28.3546146 99.9717771,28.5616702 C100.267779,28.7681677 100.48099,29.0583803 100.612238,29.4309129 C100.743764,29.8031665 100.809389,30.6244125 100.809389,31.8949301 L100.809389,37.8964722 L104.127161,37.8964722 L104.127161,30.5875778 C104.127161,29.6801052 104.071228,28.9819205 103.958531,28.494698 C103.84445,28.0077547 103.536541,27.629362 103.247184,27.2448302 L103.247184,27.2448302 Z M72.1702728,16.6995065 L75.5054897,4.23180296 L78.8515056,16.6995065 L82.450051,16.6995065 L86.5298423,0.0228821525 L83.1148792,0.0228821525 L80.5364201,11.671293 L77.5913502,0.0228821525 L73.5572468,0.0228821525 L70.486189,11.47819 L67.9534178,0.0228821525 L64.4808603,0.0228821525 L68.4919813,16.6995065 L72.1702728,16.6995065 Z M93.9952456,16.6995065 L97.1670936,16.6995065 L97.1670936,0.0228821525 L93.9952456,0.0228821525 L93.9952456,16.6995065 Z M88.0627406,16.6995065 L91.3691603,16.6995065 L91.3691603,4.6188462 L88.0627406,4.6188462 L88.0627406,16.6995065 Z M88.0627406,2.98081894 L91.3691603,2.98081894 L91.3691603,0.0228821525 L88.0627406,0.0228821525 L88.0627406,2.98081894 Z M54.5339116,38 L55.9923248,38 L55.9923248,0.000558101281 L54.5339116,0.000558101281 L54.5339116,38 Z M130.993586,28.1101663 L130.947068,28.1101663 L130.872029,25.9450123 L127.679413,25.953942 C127.729809,26.8335096 127.801802,27.833069 127.803463,28.3325696 L127.854135,37.8992627 L131.323924,37.8892169 L131.306479,31.9632975 C131.328077,31.1788861 131.396747,30.5116761 131.766958,29.8436288 C132.115017,29.343012 132.883404,29.0092674 133.466271,28.9590383 L134.980063,28.9548525 L134.971757,25.7906973 C133.22371,25.7477235 131.733453,26.2268535 130.993586,28.1101663 L130.993586,28.1101663 Z M118.396739,30.2680649 C118.437997,28.9808043 118.771103,27.7856304 120.315077,27.7814321 C121.948489,27.7769798 122.288241,28.9696422 122.29101,30.2571819 L118.396739,30.2680649 Z M125.671361,30.340618 C125.579708,29.5919252 125.421047,28.8898337 125.105939,28.2368552 C124.16006,26.1788568 122.412567,25.4340706 120.309816,25.4404477 C116.884331,25.4505346 114.922797,28.1709993 114.931628,31.7082452 C114.942734,35.641464 116.493077,37.9076342 120.342213,37.8965133 C122.961099,37.8875426 125.130028,36.9220274 125.412463,34.0173893 L122.390693,34.0265979 C122.080015,35.1051287 121.499363,35.5513306 120.336952,35.5549583 C118.612165,35.5594231 118.407538,34.1326372 118.403662,32.6092997 L125.766613,32.58865 C125.764952,31.8159588 125.763014,31.0667078 125.671361,30.340618 L125.671361,30.340618 Z M113.542469,26.0080778 L110.998068,26.0142169 L110.9881,22.4956674 L107.614117,23.7469304 L107.619932,26.0239837 L105.345782,26.0320761 L105.352428,28.3325696 L107.626024,28.3247562 L107.642638,34.0059482 C107.650114,36.5140553 108.215259,37.917122 110.849651,37.9085112 C111.323144,37.9076342 113.124078,37.740762 113.506472,37.5560304 L113.501488,35.5323552 C113.141523,35.5549583 112.78045,35.6032341 112.420208,35.6032341 C111.250044,35.6068617 111.022712,35.1927506 111.019112,33.6749941 L111.003883,28.3155475 L113.548837,28.3088503 L113.542469,26.0080778 Z M84.0795862,30.263321 C84.1233358,28.9755023 84.4592111,27.783398 86.0037391,27.7822818 C87.6363202,27.7822818 87.9730262,28.9746651 87.9727495,30.263321 L84.0795862,30.263321 Z M91.3531003,30.3551287 C91.2633859,29.6053196 91.1063856,28.9040653 90.7921082,28.2488544 C89.8523219,26.1883445 88.107044,25.4399307 86.004016,25.4407671 C82.5785309,25.4404888 80.6095207,28.1570468 80.6095207,31.6926184 C80.6103514,35.6261162 82.1554332,37.8981465 86.0051236,37.8964731 C88.6231789,37.8956351 90.7943234,36.9345847 91.0847877,34.0316208 L88.0632944,34.0321789 C87.7495708,35.1090354 87.1678115,35.5530049 86.0051236,35.5538421 C84.2806129,35.5544002 84.0795862,34.126219 84.0795862,32.605114 L91.4428147,32.6026025 C91.4428147,31.8299113 91.4428147,31.0814975 91.3531003,30.3551287 L91.3531003,30.3551287 Z M72.5260847,35.3654829 C70.0650296,35.3721801 69.4278911,31.6468541 69.4204149,29.3365938 C69.4154307,27.0280079 70.0306945,23.2976589 72.4936878,23.2912407 C74.574841,23.2853807 75.6087721,24.6778434 75.5913276,26.4154917 L79.283464,26.4040506 C79.1153878,22.2662877 76.2013303,20.719231 72.4864885,20.7308851 C67.8091548,20.7446246 65.7144337,24.5224122 65.7284845,29.3469187 C65.7415695,34.1717043 67.8556734,37.9405622 72.5338378,37.9258159 C76.2495103,37.9143315 79.1544302,36.352485 79.3003546,32.2116526 L75.6065569,32.2233727 C75.6342465,33.9613001 74.6083455,35.3587857 72.5260847,35.3654829 L72.5260847,35.3654829 Z M135,9.06691341 C134.999723,8.9550141 134.995016,8.81297732 134.985324,8.65363941 C134.962342,8.09665433 134.911393,7.64319704 134.831093,7.2980114 C134.77959,7.07839854 134.687661,6.88138879 134.577179,6.69526201 C134.449253,6.44020973 134.280346,6.2091558 134.081812,6.00182117 C133.784702,5.63459053 133.253061,5.28242862 132.71339,5.04439843 C132.509594,4.95482317 132.29583,4.88729292 132.076805,4.83036658 C131.68112,4.71204911 131.306756,4.65121607 131.007431,4.65121607 C130.664633,4.65177417 130.348695,4.68079544 130.055738,4.73353601 C129.889877,4.76116203 129.732877,4.79799671 129.582522,4.84487722 C128.649658,5.12309071 127.98843,5.6850987 127.500815,6.42402479 C127.451251,6.45444131 127.456235,6.35593644 127.456235,6.35593644 L127.455404,5.56594407 L127.459004,4.75223241 L127.454574,4.75223241 L127.454574,4.7494419 L124.075884,4.75223241 L124.075884,16.6922512 L124.152861,16.6922512 L124.152861,16.6995065 L127.42633,16.6995065 L127.42633,16.6880654 L127.459004,16.6880654 C127.459004,16.6880654 127.438237,10.7236371 127.434637,9.70705558 C127.442944,9.40456468 127.460942,9.14811714 127.491401,8.9346434 C127.504138,8.85706732 127.517429,8.78060745 127.534043,8.70833333 C127.536258,8.69856656 127.53875,8.68907884 127.541242,8.67987017 C127.55121,8.63801257 127.563671,8.59950358 127.575024,8.55932029 C127.729809,8.09498003 127.92779,7.78467571 128.340088,7.4975326 C128.76374,7.20285513 129.242217,7.05467924 129.775519,7.05467924 C130.016696,7.05467924 130.23489,7.09346728 130.43564,7.16267184 C131.345245,7.58208495 131.5651,8.66731289 131.584206,9.65403595 L131.558732,16.6995065 L135,16.6995065 L135,9.39061215 C135,9.36075373 134.999446,9.33312772 134.999169,9.3038274 L135,9.06691341 Z M116.35712,6.66426975 C118.437166,6.65731113 118.781071,8.72089061 118.786055,10.6413171 C118.791317,12.5606274 118.457656,14.6258812 116.378718,14.6317589 C114.298396,14.6387175 113.95366,12.5759752 113.948909,10.6549906 C113.944522,8.73400599 114.277352,6.66958935 116.35712,6.66426975 L116.35712,6.66426975 Z M116.38481,17.0324575 C120.091622,17.0220891 122.300424,14.4235695 122.29104,10.629876 C122.27938,6.83785689 120.057841,4.25328986 116.351306,4.26275155 C112.643663,4.27393961 110.435414,6.87413347 110.445624,10.6661526 C110.456182,14.4581718 112.677444,17.0446922 116.38481,17.0324575 L116.38481,17.0324575 Z M109.305139,13.0746387 C109.293494,8.57159852 102.822702,9.66910469 102.818272,7.77518799 C102.81578,6.98547468 103.243585,6.69637822 104.167588,6.69498296 C104.934868,6.69247151 105.657014,7.04993538 105.70464,7.86336799 L108.749946,7.85332217 C108.58547,5.19592292 106.552773,4.2915198 104.161496,4.29790408 C102.177811,4.30491423 99.3158096,5.41553578 99.3210706,7.9300611 C99.3296544,10.7328457 101.338538,11.2295559 103.504975,11.775658 C104.181987,11.9405769 105.807368,12.3415727 105.808753,13.2992745 C105.812076,14.233536 105.114297,14.6445776 104.189186,14.6456938 C103.196789,14.6487634 102.40625,14.1249853 102.336195,13.1904447 L99.2006207,13.2016067 C99.2526772,15.9541623 101.555624,17.0497151 104.195001,17.0416671 C106.292768,17.0352044 109.313153,15.7094348 109.305139,13.0746387 L109.305139,13.0746387 Z" id="Fill-1"></path>
                    <path d="M26.2057504,0.000558101281 L23.5602824,6.59564094 L20.9134299,-3.10862447e-15 L26.2057504,0.000558101281 Z M28.5820752,19.1571055 L25.306391,10.9636206 L29.8920719,0.000558101281 L36.2435211,0.00111620256 L28.5820752,19.1571055 Z M21.8152814,10.9636206 L18.5395972,19.1571055 L10.8781512,1.59872116e-14 L17.2296004,0.000558101281 L21.8152814,10.9636206 Z M28.6297013,27.3131976 L39.9749768,0.0013952532 L47.181482,0.000558101281 L29.6143449,37.9810246 L23.5937869,25.0721419 L17.5660295,37.9810246 L-5.04485342e-13,0.000558101281 L7.19985971,0.000558101281 L18.4972321,27.1036306 L23.5602824,15.1641699 L28.6297013,27.3131976 Z" id="Combined-Shape"></path>
                </g>
            </g>
        </g>
    </g>
</svg>