<?xml version="1.0" standalone="no"?>
<!DOCTYPE svg PUBLIC "-//W3C//DTD SVG 20010904//EN"
 "http://www.w3.org/TR/2001/REC-SVG-20010904/DTD/svg10.dtd">
<svg version="1.0" xmlns="http://www.w3.org/2000/svg"
 width="700.000000pt" height="700.000000pt" viewBox="0 0 700.000000 700.000000"
 preserveAspectRatio="xMidYMid meet">
<metadata>
Created by potrace 1.11, written by Peter Selinger 2001-2013
</metadata>
<g transform="translate(0.000000,700.000000) scale(0.100000,-0.100000)"
fill="#000000" stroke="none">
<path d="M11 6293 c5 -13 16 -38 26 -56 9 -17 18 -34 18 -37 3 -11 25 -59 70
-155 26 -55 58 -125 72 -155 46 -100 81 -174 118 -255 21 -44 51 -109 67 -145
36 -79 75 -162 139 -299 27 -57 49 -105 49 -106 0 -2 21 -47 46 -102 25 -54
59 -125 74 -158 162 -351 208 -450 255 -550 20 -44 132 -285 247 -535 116
-250 253 -547 305 -660 53 -113 121 -261 153 -330 32 -69 74 -161 95 -205 81
-174 100 -215 155 -335 32 -69 73 -159 93 -200 19 -41 48 -104 65 -140 16 -36
72 -157 124 -270 53 -113 107 -230 120 -260 14 -30 39 -84 56 -120 17 -36 76
-164 132 -284 55 -121 105 -226 109 -234 7 -12 15 -2 34 39 13 30 44 95 67
144 23 50 134 288 247 529 113 241 208 446 213 455 5 9 16 34 26 56 9 22 45
99 78 170 34 72 100 212 146 312 47 101 87 183 90 183 3 0 12 -15 19 -33 8
-17 39 -84 69 -147 29 -63 63 -135 74 -160 11 -25 49 -105 84 -179 35 -73 64
-135 64 -136 0 -2 25 -57 56 -122 31 -65 114 -242 184 -393 70 -151 150 -322
178 -380 27 -58 73 -157 102 -220 29 -63 56 -119 60 -123 4 -4 35 54 70 130
35 76 87 189 117 252 29 62 53 114 53 116 0 3 72 159 125 270 18 39 50 106 70
150 20 44 75 162 121 263 47 100 100 215 118 255 19 39 74 160 124 267 49 107
107 233 129 280 22 47 66 141 98 210 32 69 80 172 106 229 27 57 49 105 49
106 0 2 23 52 51 112 28 59 63 135 79 168 15 33 39 85 53 115 14 30 42 91 62
135 21 44 77 166 125 270 48 105 172 372 275 595 103 223 200 433 216 468 64
139 89 191 133 285 25 55 46 100 46 102 0 1 23 52 51 111 28 60 64 136 79 169
15 33 47 101 70 150 23 50 50 108 60 130 10 22 39 85 65 140 26 55 50 109 55
121 l8 20 -534 0 -533 1 -77 -186 c-42 -102 -85 -204 -94 -226 -10 -22 -87
-206 -170 -410 -166 -402 -236 -569 -250 -600 -5 -11 -32 -76 -60 -145 -28
-69 -71 -172 -95 -230 -24 -58 -101 -242 -170 -410 -112 -270 -201 -484 -240
-575 -7 -16 -23 -55 -35 -85 -12 -30 -28 -68 -35 -85 -7 -16 -84 -201 -170
-410 -86 -209 -163 -393 -170 -410 -7 -16 -30 -70 -50 -120 -20 -49 -44 -105
-53 -123 l-15 -34 -14 34 c-8 18 -30 69 -48 113 -33 80 -556 1334 -580 1390
-7 17 -25 59 -40 95 -15 36 -33 79 -40 95 -7 17 -16 39 -19 49 -9 27 -17 16
-71 -114 -26 -63 -54 -129 -61 -147 -8 -17 -147 -346 -310 -730 -163 -384
-302 -711 -309 -727 -8 -18 -14 -23 -17 -15 -17 43 -762 1829 -773 1854 -8 17
-41 95 -73 175 -61 149 -621 1493 -652 1565 -9 22 -52 123 -94 226 l-78 185
-533 0 -533 1 9 -24z"/>
<path d="M1623 6296 c5 -19 795 -1997 816 -2041 5 -11 55 -135 111 -275 103
-261 106 -269 134 -332 9 -20 16 -40 16 -45 1 -4 9 -26 20 -48 11 -22 19 -46
20 -52 1 -39 24 4 79 145 34 86 68 171 75 187 44 100 339 850 339 859 -1 6
-47 119 -103 251 -56 132 -117 276 -135 320 -80 196 -427 1020 -435 1034 -8
14 -58 16 -475 17 -466 0 -467 0 -462 -20z"/>
<path d="M3110 6305 c0 -10 163 -422 189 -480 5 -11 49 -119 97 -240 48 -121
90 -224 94 -228 4 -4 15 12 25 35 10 24 23 57 30 73 7 17 77 190 154 385 78
195 146 364 151 375 5 11 15 36 23 56 l14 35 -388 0 c-283 0 -389 -3 -389 -11z"/>
<path d="M4431 6306 c-4 -6 -36 -80 -70 -165 -35 -85 -66 -161 -71 -170 -4 -9
-12 -27 -17 -41 -6 -14 -15 -36 -21 -50 -32 -76 -71 -170 -162 -390 -56 -135
-108 -258 -115 -275 -7 -16 -41 -97 -75 -180 -34 -82 -68 -163 -75 -180 -35
-80 -65 -155 -65 -164 0 -10 342 -880 359 -911 4 -8 32 -77 61 -152 30 -76 57
-138 60 -138 4 0 50 111 104 248 55 136 105 261 112 277 7 17 171 426 364 910
193 484 355 889 360 900 5 11 41 101 80 200 39 99 77 194 85 210 7 17 16 42
20 56 l6 25 -466 0 c-314 0 -468 -3 -474 -10z"/>
</g>
</svg>
